#!OML:ASF F:\VICON\USERDATA\INSTALL\rory3\rory3.ASF
:FULLY-SPECIFIED
:DEGREES
482
root 4.19319 17.9362 6.9284 -363.253 5.27494 -362.889
lowerback 12.8299 0.704704 -2.79674
upperback 1.44467 0.600322 0.920723
thorax -5.71455 0.369746 2.44498
lowerneck -14.8538 -8.14819 -13.812
upperneck 33.3828 -12.6871 13.0266
head 16.2829 -5.49927 5.65859
rclavicle 3.37934e-015 7.95139e-015
rhumerus -41.5811 -18.6289 -75.7417
rradius 30.3058
rwrist 6.38614
rhand -17.3094 7.4722
rfingers 7.12502
rthumb 8.93682 -22.3185
lclavicle 3.37934e-015 7.95139e-015
lhumerus -29.1553 2.61295 78.1498
lradius 30.7349
lwrist -0.530082
lhand -19.6543 27.4612
lfingers 7.12502
lthumb 6.67353 57.336
rfemur -7.38134 0.0764972 15.8599
rtibia 22.887
rfoot -8.12101 -0.423012
rtoes -8.13145
lfemur -3.19112 -10.1349 -0.577833
ltibia 32.3645
lfoot 10.4433 15.2375
ltoes -5.86369
483
root 4.09665 17.9473 6.95554 -363.306 4.70445 -363.131
lowerback 13.014 0.751706 -2.42885
upperback 1.4144 0.707845 0.893242
thorax -5.85089 0.415716 2.18775
lowerneck -14.6 -8.11278 -13.7708
upperneck 33.1663 -12.6797 13.1014
head 16.1135 -5.49407 5.67808
rclavicle 8.74653e-015 -7.55382e-015
rhumerus -41.4604 -17.972 -76.1854
rradius 30.4641
rwrist 6.62949
rhand -17.1648 7.79563
rfingers 7.12502
rthumb 9.07629 -21.9891
lclavicle 8.74653e-015 -7.55382e-015
lhumerus -29.3918 2.12315 78.4815
lradius 31.0377
lwrist -0.696013
lhand -19.744 26.7604
lfingers 7.12502
lthumb 6.58692 56.638
rfemur -7.35743 0.148609 16.5302
rtibia 22.8269
rfoot -8.13337 -0.0560366
rtoes -7.16473
lfemur -3.50678 -10.4427 -0.404813
ltibia 33.3162
lfoot 10.5648 15.9246
ltoes -3.33748
484
root 4.00788 17.9535 6.97993 -363.321 4.17602 -363.309
lowerback 13.1448 0.745055 -2.11873
upperback 1.39957 0.739788 0.883998
thorax -5.93696 0.424886 1.99595
lowerneck -14.3601 -8.05042 -13.7891
upperneck 33.0043 -12.6007 13.131
head 15.9622 -5.47145 5.70559
rclavicle 1.63997e-015 -1.66979e-014
rhumerus -41.2 -16.9894 -76.7286
rradius 30.6794
rwrist 6.57578
rhand -17.1249 7.77783
rfingers 7.12502
rthumb 9.11483 -22.0052
lclavicle 1.63997e-015 -1.66979e-014
lhumerus -29.5563 1.7336 78.8248
lradius 31.2442
lwrist -0.984455
lhand -19.7483 26.0387
lfingers 7.12502
lthumb 6.58281 55.9164
rfemur -7.37393 0.0796666 17.0939
rtibia 22.8111
rfoot -8.2237 0.385502
rtoes -6.80517
lfemur -3.88935 -10.5954 -0.345994
ltibia 34.2584
lfoot 10.0706 15.9727
ltoes -2.2739
485
root 3.92537 17.958 7.00514 -363.314 3.69615 -363.411
lowerback 13.2175 0.734362 -1.81427
upperback 1.3988 0.765855 0.848532
thorax -5.97499 0.430115 1.78099
lowerneck -14.3788 -8.0265 -13.7768
upperneck 33.0816 -12.5498 13.0518
head 15.9854 -5.45863 5.68189
rclavicle -2.28602e-015 -1.98785e-015
rhumerus -40.904 -16.1566 -77.1789
rradius 30.8568
rwrist 6.51722
rhand -16.9807 7.79813
rfingers 7.12502
rthumb 9.25397 -21.9788
lclavicle -2.28602e-015 -1.98785e-015
lhumerus -29.665 1.2907 79.2501
lradius 31.4688
lwrist -1.31318
lhand -19.88 25.9829
lfingers 7.12502
lthumb 6.45567 55.8645
rfemur -7.37584 0.005121 17.5397
rtibia 22.7986
rfoot -8.3433 0.848286
rtoes -6.6751
lfemur -4.39917 -10.6306 -0.393283
ltibia 35.2372
lfoot 8.16298 14.8263
ltoes -2.25416
486
root 3.84685 17.9676 7.03035 -363.267 3.23387 -363.424
lowerback 13.1905 0.747436 -1.61124
upperback 1.43028 0.810936 0.818589
thorax -5.92537 0.446119 1.62655
lowerneck -14.5463 -8.0213 -13.7319
upperneck 33.1409 -12.4965 12.9219
head 16.0271 -5.43988 5.6249
rclavicle -9.98893e-015 -1.66979e-014
rhumerus -40.5768 -15.4221 -77.5132
rradius 31.0179
rwrist 6.65213
rhand -16.8759 7.88184
rfingers 7.12502
rthumb 9.35508 -21.8906
lclavicle -9.98893e-015 -1.66979e-014
lhumerus -29.7142 0.786664 79.8151
lradius 31.7301
lwrist -1.5326
lhand -20.0288 26.5994
lfingers 7.12502
lthumb 6.31205 56.4853
rfemur -7.48018 -0.121564 17.8585
rtibia 22.8529
rfoot -8.41221 1.41602
rtoes -6.66692
lfemur -4.985 -10.7423 -0.609454
ltibia 36.2202
lfoot 6.00773 13.5449
ltoes -1.34566
487
root 3.77103 17.9735 7.05234 -363.18 2.76942 -363.494
lowerback 13.2006 0.743987 -1.34665
upperback 1.44036 0.84269 0.793564
thorax -5.91734 0.454787 1.44466
lowerneck -14.838 -7.9649 -13.6593
upperneck 33.2245 -12.3785 12.8394
head 16.1005 -5.38006 5.59758
rclavicle 1.38652e-014 1.98785e-014
rhumerus -40.241 -14.8115 -77.7788
rradius 31.2031
rwrist 6.81932
rhand -16.5703 7.92889
rfingers 7.12502
rthumb 9.64997 -21.8301
lclavicle 1.38652e-014 1.98785e-014
lhumerus -29.758 0.355788 80.3174
lradius 31.9431
lwrist -1.84341
lhand -19.9528 27.1756
lfingers 7.12502
lthumb 6.38535 57.0593
rfemur -7.65565 -0.190926 18.2266
rtibia 22.9463
rfoot -8.5856 1.88046
rtoes -6.76831
lfemur -5.60599 -10.7532 -0.807938
ltibia 37.1653
lfoot 4.10321 12.0274
ltoes -0.689982
488
root 3.6975 17.9717 7.07549 -363.119 2.31884 -363.511
lowerback 13.2841 0.700001 -1.16726
upperback 1.38758 0.80724 0.761061
thorax -6.01536 0.433513 1.31458
lowerneck -14.9332 -7.87127 -13.5709
upperneck 33.2617 -12.2129 12.7167
head 16.088 -5.31164 5.56
rclavicle -4.96962e-017 -3.97569e-015
rhumerus -40.0652 -13.9938 -78.0885
rradius 31.515
rwrist 6.78246
rhand -16.3375 7.99342
rfingers 7.12502
rthumb 9.87455 -21.755
lclavicle -4.96962e-017 -3.97569e-015
lhumerus -30.037 0.178543 80.7062
lradius 32.1838
lwrist -2.45828
lhand -20.0725 26.4922
lfingers 7.12502
lthumb 6.26978 56.3794
rfemur -7.78396 -0.201629 18.5219
rtibia 23.1092
rfoot -8.88003 2.32966
rtoes -6.65071
lfemur -6.17281 -10.6763 -1.13359
ltibia 38.0179
lfoot 2.51254 10.4666
ltoes -2.10752
489
root 3.62526 17.9709 7.09974 -363.089 1.93223 -363.436
lowerback 13.3525 0.674705 -1.10739
upperback 1.33907 0.779303 0.725263
thorax -6.10257 0.418582 1.24745
lowerneck -14.8543 -7.84281 -13.5307
upperneck 33.2278 -12.1413 12.5847
head 16.0203 -5.29668 5.50598
rclavicle -6.4605e-016 6.75868e-015
rhumerus -40.0086 -13.1692 -78.3237
rradius 31.9149
rwrist 6.50999
rhand -16.3353 8.1324
rfingers 7.12502
rthumb 9.87667 -21.6159
lclavicle -6.4605e-016 6.75868e-015
lhumerus -30.3235 0.0507027 81.156
lradius 32.4262
lwrist -3.08855
lhand -20.4427 25.8023
lfingers 7.12502
lthumb 5.91241 55.6998
rfemur -7.88788 -0.181128 18.7137
rtibia 23.3817
rfoot -9.13343 2.66536
rtoes -6.75199
lfemur -6.70664 -10.6874 -1.61663
ltibia 38.7504
lfoot 0.925017 8.9915
ltoes -5.17485
490
root 3.55617 17.9708 7.12107 -363.035 1.50386 -363.322
lowerback 13.3608 0.698388 -1.06795
upperback 1.34349 0.812818 0.674402
thorax -6.10215 0.433218 1.16528
lowerneck -14.9179 -7.83958 -13.4516
upperneck 33.2802 -12.1241 12.4802
head 16.0409 -5.29038 5.44911
rclavicle -1.2424e-015 -2.78299e-015
rhumerus -39.8544 -12.6638 -78.4496
rradius 32.2784
rwrist 6.38744
rhand -16.3061 8.08562
rfingers 7.12502
rthumb 9.90481 -21.6614
lclavicle -1.2424e-015 -2.78299e-015
lhumerus -30.3277 -0.500954 81.7571
lradius 32.5777
lwrist -2.98305
lhand -20.5975 26.5098
lfingers 7.12502
lthumb 5.76297 56.4114
rfemur -8.11296 -0.0430817 18.8711
rtibia 23.7801
rfoot -9.34212 2.85341
rtoes -7.1309
lfemur -7.223 -10.6577 -2.20061
ltibia 39.3409
lfoot -0.599816 7.55247
ltoes -8.45567
491
root 3.48917 17.9706 7.14649 -363.023 1.07027 -363.079
lowerback 13.3461 0.754843 -1.18284
upperback 1.40935 0.865598 0.597814
thorax -6.02624 0.460075 1.14019
lowerneck -15.2262 -7.86924 -13.2637
upperneck 33.5386 -12.1319 12.2262
head 16.2053 -5.28873 5.30663
rclavicle 2.23633e-015 7.55382e-015
rhumerus -39.5602 -12.3918 -78.479
rradius 32.5345
rwrist 6.41782
rhand -16.123 7.972
rfingers 7.12502
rthumb 10.0815 -21.7665
lclavicle 2.23633e-015 7.55382e-015
lhumerus -30.2436 -1.13201 82.3878
lradius 32.7279
lwrist -2.79538
lhand -20.5809 26.9138
lfingers 7.12502
lthumb 5.77902 56.815
rfemur -8.35643 0.0705152 18.889
rtibia 24.2501
rfoot -9.70305 3.04774
rtoes -6.45997
lfemur -7.62156 -10.5752 -3.00132
ltibia 39.81
lfoot -2.16581 6.14954
ltoes -10.8405
492
root 3.42396 17.9689 7.177 -363.01 0.61223 -362.706
lowerback 13.2491 0.843256 -1.42049
upperback 1.49408 0.941608 0.480835
thorax -5.88673 0.500211 1.13879
lowerneck -15.3175 -7.9303 -13.2417
upperneck 33.5572 -12.2022 12.1603
head 16.2421 -5.32037 5.25622
rclavicle -4.96962e-017 2.10712e-014
rhumerus -39.228 -12.1321 -78.5013
rradius 32.6705
rwrist 6.1622
rhand -16.2424 8.40699
rfingers 7.12502
rthumb 9.96635 -21.3371
lclavicle -4.96962e-017 2.10712e-014
lhumerus -30.1795 -1.11954 82.837
lradius 32.9117
lwrist -3.79792
lhand -20.1542 26.8157
lfingers 7.12502
lthumb 6.19096 56.7052
rfemur -8.55834 0.19235 18.7378
rtibia 24.7297
rfoot -10.0693 3.34829
rtoes -6.18668
lfemur -7.94892 -10.5107 -4.01521
ltibia 40.2078
lfoot -3.96465 4.87535
ltoes -13.2653
493
root 3.36012 17.9666 7.2032 -362.967 0.256118 -362.455
lowerback 13.1514 0.88929 -1.51842
upperback 1.54243 0.983349 0.377208
thorax -5.78243 0.520745 1.07886
lowerneck -15.0369 -7.96082 -13.3024
upperneck 33.2283 -12.2625 12.2632
head 16.0356 -5.35256 5.28728
rclavicle -1.01877e-014 0
rhumerus -39.0078 -12.0143 -78.4612
rradius 32.914
rwrist 5.76601
rhand -16.3544 9.36327
rfingers 7.12502
rthumb 9.8583 -20.3859
lclavicle -1.01877e-014 0
lhumerus -30.1203 -1.09716 83.2289
lradius 33.1016
lwrist -4.9344
lhand -19.794 27.5389
lfingers 7.12502
lthumb 6.5387 57.418
rfemur -8.77318 0.408956 18.7239
rtibia 25.2192
rfoot -10.2783 3.48224
rtoes -5.89712
lfemur -8.3843 -10.4561 -4.88323
ltibia 40.5439
lfoot -5.79395 3.59483
ltoes -14.6589
494
root 3.29915 17.9632 7.22472 -362.953 -0.0543875 -362.366
lowerback 13.165 0.909565 -1.45852
upperback 1.54387 1.01647 0.346286
thorax -5.78789 0.535212 1.00636
lowerneck -14.8244 -7.98916 -13.3952
upperneck 33.0722 -12.2952 12.2907
head 15.9239 -5.38391 5.30447
rclavicle -9.93923e-016 -7.15625e-015
rhumerus -39.0077 -11.8397 -78.3523
rradius 33.4372
rwrist 5.45263
rhand -16.4372 9.83688
rfingers 7.12502
rthumb 9.77839 -19.9161
lclavicle -9.93923e-016 -7.15625e-015
lhumerus -30.1451 -1.46138 83.8233
lradius 33.1976
lwrist -4.75737
lhand -19.6223 28.3893
lfingers 7.12502
lthumb 6.70445 58.2632
rfemur -8.99714 0.711742 18.9098
rtibia 25.6959
rfoot -10.4992 3.3742
rtoes -5.15459
lfemur -8.84667 -10.3598 -5.5804
ltibia 40.8064
lfoot -7.37141 2.12579
ltoes -16.7864
